<svg width="14" height="13" viewBox="0 0 14 13" fill="none" xmlns="http://www.w3.org/2000/svg">
<path fill-rule="evenodd" clip-rule="evenodd" d="M13.5 4.08297C13.477 2.50097 12.58 0.942967 11.203 0.300967C10.4629 -0.0449067 9.61857 -0.0946371 8.843 0.161967C8.138 0.385967 7.431 0.844967 6.75 1.56697C6.069 0.844967 5.362 0.386967 4.657 0.161967C3.88143 -0.0946371 3.03709 -0.0449067 2.297 0.300967C0.92 0.942967 0.023 2.50097 0 4.08297V4.09097C0 6.39797 1.372 8.44197 2.826 9.87697C3.48608 10.5327 4.21843 11.1114 5.009 11.602C5.347 11.808 5.666 11.973 5.949 12.089C6.219 12.199 6.502 12.283 6.75 12.283C6.998 12.283 7.28 12.199 7.55 12.089C7.834 11.974 8.153 11.809 8.49 11.603C9.28097 11.1121 10.0137 10.5331 10.674 9.87697C12.128 8.44197 13.5 6.39797 13.5 4.09197V4.08297Z" fill="#0ECD31"/>
</svg>
