<svg width="24" height="24" viewBox="0 0 24 24" fill="none" xmlns="http://www.w3.org/2000/svg">
<path d="M2.77933 1.71908L22.2808 21.2191C22.4215 21.3599 22.5004 21.5508 22.5003 21.7499C22.5001 21.9489 22.4209 22.1397 22.2801 22.2803C22.2104 22.35 22.1276 22.4052 22.0365 22.4428C21.9454 22.4805 21.8478 22.4998 21.7493 22.4997C21.5503 22.4996 21.3595 22.4204 21.2188 22.2796L18.3943 19.4551L18.3058 19.4686C18.2047 19.486 18.1024 19.4961 17.9998 19.4986H5.99983C5.20418 19.4986 4.44112 19.1825 3.87851 18.6199C3.3159 18.0573 2.99983 17.2942 2.99983 16.4986V9.00008C2.99983 7.66058 3.88183 6.54158 5.09233 6.15458L1.71883 2.77958C1.58222 2.63813 1.50662 2.44868 1.50833 2.25203C1.51004 2.05538 1.58891 1.86727 1.72797 1.72821C1.86703 1.58916 2.05514 1.51028 2.25178 1.50857C2.44843 1.50686 2.63788 1.58246 2.77933 1.71908ZM7.49983 12.0001C7.49983 13.1936 7.97394 14.3381 8.81785 15.1821C9.66177 16.026 10.8064 16.5001 11.9998 16.5001C12.9703 16.5001 13.8643 16.1851 14.5993 15.6616L13.5133 14.5756C13.0564 14.8511 12.5334 14.9978 11.9998 15.0001C11.2042 15.0001 10.4411 14.684 9.87851 14.1214C9.3159 13.5588 8.99983 12.7957 8.99983 12.0001C8.99983 11.4451 9.16183 10.9321 9.42433 10.4866L8.33833 9.40058C7.79626 10.1593 7.50326 11.0676 7.49983 12.0001ZM11.9998 7.50008C13.1933 7.50008 14.3379 7.97418 15.1818 8.8181C16.0257 9.66201 16.4998 10.8066 16.4998 12.0001C16.4998 12.4006 16.4308 12.7816 16.3348 13.1506L20.7853 17.6026C20.9203 17.2606 21.0013 16.8901 21.0013 16.5016V9.00008C21.0013 8.20443 20.6853 7.44137 20.1227 6.87876C19.56 6.31615 18.797 6.00008 18.0013 6.00008H16.9648L16.0873 4.24208C15.9001 3.86836 15.6124 3.5542 15.2566 3.33483C14.9007 3.11545 14.4908 2.99954 14.0728 3.00008H9.92683C9.50876 3.00009 9.09896 3.11659 8.7434 3.3365C8.38783 3.5564 8.10057 3.87103 7.91383 4.24508L7.75183 4.56908L10.8493 7.66508C11.2198 7.56758 11.5993 7.50008 11.9998 7.50008ZM14.9788 11.7961C14.9297 11.0763 14.6216 10.3986 14.1115 9.88845C13.6013 9.37829 12.9236 9.07016 12.2038 9.02108L14.9788 11.7961Z" fill="#BC0055"/>
</svg>
